<svg width="98" height="27" viewBox="0 0 98 27" fill="none" xmlns="http://www.w3.org/2000/svg">
<g clip-path="url(#clip0_0_653)">
<path d="M32.88 21.2C32.3067 21.2 31.7 21.14 31.06 21.02C30.42 20.9 29.8467 20.6933 29.34 20.4C29.1267 20.2667 28.9733 20.1133 28.88 19.94C28.8 19.7533 28.7667 19.5733 28.78 19.4C28.8067 19.2133 28.8733 19.0533 28.98 18.92C29.1 18.7867 29.2467 18.7 29.42 18.66C29.6067 18.62 29.8067 18.6533 30.02 18.76C30.5533 19.0133 31.0533 19.1933 31.52 19.3C31.9867 19.3933 32.4467 19.44 32.9 19.44C33.54 19.44 34.0133 19.3333 34.32 19.12C34.64 18.8933 34.8 18.6 34.8 18.24C34.8 17.9333 34.6933 17.7 34.48 17.54C34.28 17.3667 33.9733 17.24 33.56 17.16L31.56 16.78C30.7333 16.62 30.1 16.32 29.66 15.88C29.2333 15.4267 29.02 14.8467 29.02 14.14C29.02 13.5 29.1933 12.9467 29.54 12.48C29.9 12.0133 30.3933 11.6533 31.02 11.4C31.6467 11.1467 32.3667 11.02 33.18 11.02C33.7667 11.02 34.3133 11.0867 34.82 11.22C35.34 11.34 35.84 11.5333 36.32 11.8C36.52 11.9067 36.6533 12.0467 36.72 12.22C36.8 12.3933 36.82 12.5733 36.78 12.76C36.74 12.9333 36.66 13.0933 36.54 13.24C36.42 13.3733 36.2667 13.46 36.08 13.5C35.9067 13.5267 35.7067 13.4867 35.48 13.38C35.0667 13.1667 34.6667 13.0133 34.28 12.92C33.9067 12.8267 33.5467 12.78 33.2 12.78C32.5467 12.78 32.06 12.8933 31.74 13.12C31.4333 13.3467 31.28 13.6467 31.28 14.02C31.28 14.3 31.3733 14.5333 31.56 14.72C31.7467 14.9067 32.0333 15.0333 32.42 15.1L34.42 15.48C35.2867 15.64 35.94 15.9333 36.38 16.36C36.8333 16.7867 37.06 17.36 37.06 18.08C37.06 19.0533 36.68 19.82 35.92 20.38C35.16 20.9267 34.1467 21.2 32.88 21.2ZM43.9856 21.2C42.959 21.2 42.0656 20.9933 41.3056 20.58C40.5456 20.1533 39.959 19.5533 39.5456 18.78C39.1323 18.0067 38.9256 17.1 38.9256 16.06C38.9256 15.2733 39.039 14.5733 39.2656 13.96C39.5056 13.3333 39.8456 12.8067 40.2856 12.38C40.7256 11.94 41.259 11.6067 41.8856 11.38C42.5123 11.14 43.2123 11.02 43.9856 11.02C44.4256 11.02 44.899 11.08 45.4056 11.2C45.9256 11.32 46.4123 11.52 46.8656 11.8C47.079 11.9333 47.219 12.0933 47.2856 12.28C47.3523 12.4667 47.3656 12.66 47.3256 12.86C47.2856 13.0467 47.199 13.2133 47.0656 13.36C46.9456 13.4933 46.7923 13.58 46.6056 13.62C46.419 13.6467 46.2123 13.6 45.9856 13.48C45.6923 13.3067 45.3923 13.18 45.0856 13.1C44.779 13.0067 44.4856 12.96 44.2056 12.96C43.7656 12.96 43.379 13.0333 43.0456 13.18C42.7123 13.3133 42.4256 13.5133 42.1856 13.78C41.959 14.0333 41.7856 14.3533 41.6656 14.74C41.5456 15.1267 41.4856 15.5733 41.4856 16.08C41.4856 17.0667 41.719 17.8467 42.1856 18.42C42.6656 18.98 43.339 19.26 44.2056 19.26C44.4856 19.26 44.7723 19.22 45.0656 19.14C45.3723 19.06 45.679 18.9333 45.9856 18.76C46.2123 18.64 46.4123 18.6 46.5856 18.64C46.7723 18.68 46.9256 18.7733 47.0456 18.92C47.1656 19.0533 47.239 19.22 47.2656 19.42C47.2923 19.6067 47.2656 19.7933 47.1856 19.98C47.119 20.1667 46.9856 20.32 46.7856 20.44C46.3456 20.7067 45.879 20.9 45.3856 21.02C44.8923 21.14 44.4256 21.2 43.9856 21.2ZM50.5792 21.16C50.1659 21.16 49.8459 21.0533 49.6192 20.84C49.4059 20.6133 49.2992 20.2933 49.2992 19.88V12.32C49.2992 11.9067 49.4059 11.5933 49.6192 11.38C49.8326 11.1667 50.1326 11.06 50.5192 11.06C50.9059 11.06 51.2059 11.1667 51.4192 11.38C51.6326 11.5933 51.7392 11.9067 51.7392 12.32V13.58H51.5392C51.7259 12.78 52.0926 12.1733 52.6392 11.76C53.1859 11.3467 53.9126 11.1 54.8192 11.02C55.0992 10.9933 55.3192 11.0667 55.4792 11.24C55.6526 11.4 55.7526 11.6533 55.7792 12C55.8059 12.3333 55.7259 12.6067 55.5392 12.82C55.3659 13.02 55.0992 13.14 54.7392 13.18L54.2992 13.22C53.4859 13.3 52.8726 13.5533 52.4592 13.98C52.0459 14.3933 51.8392 14.98 51.8392 15.74V19.88C51.8392 20.2933 51.7326 20.6133 51.5192 20.84C51.3059 21.0533 50.9926 21.16 50.5792 21.16ZM60.6536 21.2C59.9469 21.2 59.3136 21.0667 58.7536 20.8C58.2069 20.52 57.7736 20.1467 57.4536 19.68C57.1469 19.2133 56.9936 18.6867 56.9936 18.1C56.9936 17.38 57.1803 16.8133 57.5536 16.4C57.9269 15.9733 58.5336 15.6667 59.3736 15.48C60.2136 15.2933 61.3403 15.2 62.7536 15.2H63.7536V16.64H62.7736C61.9469 16.64 61.2869 16.68 60.7936 16.76C60.3003 16.84 59.9469 16.98 59.7336 17.18C59.5336 17.3667 59.4336 17.6333 59.4336 17.98C59.4336 18.42 59.5869 18.78 59.8936 19.06C60.2003 19.34 60.6269 19.48 61.1736 19.48C61.6136 19.48 62.0003 19.38 62.3336 19.18C62.6803 18.9667 62.9536 18.68 63.1536 18.32C63.3536 17.96 63.4536 17.5467 63.4536 17.08V14.78C63.4536 14.1133 63.3069 13.6333 63.0136 13.34C62.7203 13.0467 62.2269 12.9 61.5336 12.9C61.1469 12.9 60.7269 12.9467 60.2736 13.04C59.8336 13.1333 59.3669 13.2933 58.8736 13.52C58.6203 13.64 58.3936 13.6733 58.1936 13.62C58.0069 13.5667 57.8603 13.46 57.7536 13.3C57.6469 13.1267 57.5936 12.94 57.5936 12.74C57.5936 12.54 57.6469 12.3467 57.7536 12.16C57.8603 11.96 58.0403 11.8133 58.2936 11.72C58.9069 11.4667 59.4936 11.2867 60.0536 11.18C60.6269 11.0733 61.1469 11.02 61.6136 11.02C62.5736 11.02 63.3603 11.1667 63.9736 11.46C64.6003 11.7533 65.0669 12.2 65.3736 12.8C65.6803 13.3867 65.8336 14.1467 65.8336 15.08V19.88C65.8336 20.2933 65.7336 20.6133 65.5336 20.84C65.3336 21.0533 65.0469 21.16 64.6736 21.16C64.3003 21.16 64.0069 21.0533 63.7936 20.84C63.5936 20.6133 63.4936 20.2933 63.4936 19.88V18.92H63.6536C63.5603 19.3867 63.3736 19.7933 63.0936 20.14C62.8269 20.4733 62.4869 20.7333 62.0736 20.92C61.6603 21.1067 61.1869 21.2 60.6536 21.2ZM73.2511 21.2C72.3844 21.2 71.6578 21.0533 71.0711 20.76C70.4978 20.4667 70.0711 20.04 69.7911 19.48C69.5111 18.9067 69.3711 18.2 69.3711 17.36V13.1H68.3311C68.0111 13.1 67.7644 13.02 67.5911 12.86C67.4178 12.6867 67.3311 12.4533 67.3311 12.16C67.3311 11.8533 67.4178 11.62 67.5911 11.46C67.7644 11.3 68.0111 11.22 68.3311 11.22H69.3711V9.4C69.3711 8.98667 69.4778 8.67333 69.6911 8.46C69.9178 8.24667 70.2311 8.14 70.6311 8.14C71.0311 8.14 71.3378 8.24667 71.5511 8.46C71.7644 8.67333 71.8711 8.98667 71.8711 9.4V11.22H73.9911C74.3111 11.22 74.5578 11.3 74.7311 11.46C74.9044 11.62 74.9911 11.8533 74.9911 12.16C74.9911 12.4533 74.9044 12.6867 74.7311 12.86C74.5578 13.02 74.3111 13.1 73.9911 13.1H71.8711V17.22C71.8711 17.86 72.0111 18.34 72.2911 18.66C72.5711 18.98 73.0244 19.14 73.6511 19.14C73.8778 19.14 74.0778 19.12 74.2511 19.08C74.4244 19.04 74.5778 19.0133 74.7111 19C74.8711 18.9867 75.0044 19.04 75.1111 19.16C75.2178 19.2667 75.2711 19.4933 75.2711 19.84C75.2711 20.1067 75.2244 20.3467 75.1311 20.56C75.0511 20.76 74.8978 20.9 74.6711 20.98C74.4978 21.0333 74.2711 21.08 73.9911 21.12C73.7111 21.1733 73.4644 21.2 73.2511 21.2ZM81.2692 21.2C80.2426 21.2 79.3492 20.9933 78.5892 20.58C77.8292 20.1533 77.2426 19.5533 76.8292 18.78C76.4159 18.0067 76.2092 17.1 76.2092 16.06C76.2092 15.2733 76.3226 14.5733 76.5492 13.96C76.7892 13.3333 77.1292 12.8067 77.5692 12.38C78.0092 11.94 78.5426 11.6067 79.1692 11.38C79.7959 11.14 80.4959 11.02 81.2692 11.02C81.7092 11.02 82.1826 11.08 82.6892 11.2C83.2092 11.32 83.6959 11.52 84.1492 11.8C84.3626 11.9333 84.5026 12.0933 84.5692 12.28C84.6359 12.4667 84.6492 12.66 84.6092 12.86C84.5692 13.0467 84.4826 13.2133 84.3492 13.36C84.2292 13.4933 84.0759 13.58 83.8892 13.62C83.7026 13.6467 83.4959 13.6 83.2692 13.48C82.9759 13.3067 82.6759 13.18 82.3692 13.1C82.0626 13.0067 81.7692 12.96 81.4892 12.96C81.0492 12.96 80.6626 13.0333 80.3292 13.18C79.9959 13.3133 79.7092 13.5133 79.4692 13.78C79.2426 14.0333 79.0692 14.3533 78.9492 14.74C78.8292 15.1267 78.7692 15.5733 78.7692 16.08C78.7692 17.0667 79.0026 17.8467 79.4692 18.42C79.9492 18.98 80.6226 19.26 81.4892 19.26C81.7692 19.26 82.0559 19.22 82.3492 19.14C82.6559 19.06 82.9626 18.9333 83.2692 18.76C83.4959 18.64 83.6959 18.6 83.8692 18.64C84.0559 18.68 84.2092 18.7733 84.3292 18.92C84.4492 19.0533 84.5226 19.22 84.5492 19.42C84.5759 19.6067 84.5492 19.7933 84.4692 19.98C84.4026 20.1667 84.2692 20.32 84.0692 20.44C83.6292 20.7067 83.1626 20.9 82.6692 21.02C82.1759 21.14 81.7092 21.2 81.2692 21.2ZM87.8228 21.16C87.4228 21.16 87.1161 21.0533 86.9028 20.84C86.6895 20.6133 86.5828 20.2933 86.5828 19.88V8C86.5828 7.58667 86.6895 7.27333 86.9028 7.06C87.1161 6.84667 87.4228 6.74 87.8228 6.74C88.2228 6.74 88.5295 6.84667 88.7428 7.06C88.9695 7.27333 89.0828 7.58667 89.0828 8V13.18H88.8028C89.0961 12.4733 89.5495 11.94 90.1628 11.58C90.7895 11.2067 91.4961 11.02 92.2828 11.02C93.0695 11.02 93.7161 11.1667 94.2228 11.46C94.7295 11.7533 95.1095 12.2 95.3628 12.8C95.6161 13.3867 95.7428 14.1333 95.7428 15.04V19.88C95.7428 20.2933 95.6361 20.6133 95.4228 20.84C95.2095 21.0533 94.9028 21.16 94.5028 21.16C94.1028 21.16 93.7895 21.0533 93.5628 20.84C93.3495 20.6133 93.2428 20.2933 93.2428 19.88V15.16C93.2428 14.4 93.0961 13.8467 92.8028 13.5C92.5228 13.1533 92.0828 12.98 91.4828 12.98C90.7495 12.98 90.1628 13.2133 89.7228 13.68C89.2961 14.1333 89.0828 14.74 89.0828 15.5V19.88C89.0828 20.7333 88.6628 21.16 87.8228 21.16Z" fill="#363837"/>
</g>
<path fill-rule="evenodd" clip-rule="evenodd" d="M14.6573 24.0001C10.5709 27.8366 4.05939 27.7261 0.113281 23.7533L14.9111 9.86011C18.8572 13.8329 18.7436 20.1636 14.6573 24.0001Z" fill="#30BE76"/>
<path fill-rule="evenodd" clip-rule="evenodd" d="M17.6846 4.05343L2.8868 17.9466C-1.05931 13.9738 -0.945646 7.6431 3.14067 3.80661C7.22698 -0.0298808 13.7385 0.0806217 17.6846 4.05343Z" fill="#F8B449"/>
<defs>
<clipPath id="clip0_0_653">
<rect width="66" height="19" fill="white" transform="translate(28 4)"/>
</clipPath>
</defs>
</svg>
